<?xml version="1.0" encoding="utf-8"?>
<!-- Generator: Adobe Illustrator 22.1.0, SVG Export Plug-In . SVG Version: 6.00 Build 0)  -->
<svg version="1.1" id="Layer_1" xmlns="http://www.w3.org/2000/svg" xmlns:xlink="http://www.w3.org/1999/xlink" x="0px" y="0px"
	 width="688.6392px" height="746.0002px" viewBox="0 0 688.6392 746.0002" enable-background="new 0 0 688.6392 746.0002"
	 xml:space="preserve">
<g id="Layer_2_copy_2">
	<g>
		<path fill="#FFF4DD" d="M246.0324,6.0002c20.6447-5.095,76.7932-5.8656,95.2872-5.9804l-0.0001-0.0069
			c-21.4433,0.0885-94.5166,0.7747-121,5.9873c-315,62-219.2996,346.2155-153,442c56.1472,81.1171,248,298,248,298h6.4788
			c0,0-153.0096-216.8829-197.789-298C71.133,352.2158-5.1914,68.0003,246.0324,6.0002z"/>
		<path fill="#FFF4DD" d="M347.3195,0.0096l0.0001-0.0094c0,0-0.1514-0.0002-0.4424-0.0002c0.2908,0,0.4424,0.0002,0.4424,0.0002
			L347.3195,0.0096L347.3195,0.0096z"/>
		<path fill="#FFF4DD" d="M346.8772,0c-0.4835-0.0001-1.3527,0.0004-2.5576,0.0031c-1.2049-0.0027-2.0743-0.0032-2.5577-0.0031
			c0.4847,0.0001,1.3563,0.0009,2.5576,0.0051C345.521,0.0009,346.3925,0.0001,346.8772,0z"/>
		<path fill="#FFF4DD" d="M341.3296,0.0002c0.0188,0,0.1609-0.0002,0.4323-0.0002C341.4903,0.0001,341.3482,0.0002,341.3296,0.0002z
			"/>
		<path fill="#FFF4DD" d="M468.3196,6.0002c-26.4834-5.2126-99.5569-5.8988-121.0001-5.9873v0.0069
			c18.4939,0.1148,74.6424,0.8854,95.2872,5.9804c251.2239,62,174.8994,346.2155,122.0229,442
			c-44.7793,81.1171-197.7888,298-197.7888,298h6.4789c0,0,191.8528-216.8829,247.9999-298
			C687.6191,352.2157,783.3195,68.0003,468.3196,6.0002z"/>
		<path fill="#FFBC5E" d="M347.3195,0.0129V0.0096V0.0129z"/>
		<polygon fill="#FFBC5E" points="341.3196,0.0002 341.3296,0.0002 341.3195,0.0002 341.3196,0.0129 341.3197,0.0129 		"/>
	</g>
	<path fill="#FFF4DD" d="M381.542,6.0002c-7.1179-4.4236-24.8623-5.5872-34.2227-5.8923l0.0003-0.1077c0,0-1.1244-0.0046-3,0.0305
		c-1.8756-0.0351-3-0.0305-3-0.0305l0.0003,0.1077c-9.3603,0.3051-27.1047,1.4687-34.2227,5.8923
		c-99.764,62-69.4546,346.2155-48.4568,442c17.7825,81.1171,78.5444,298,78.5444,298h14.2695c0,0,60.7619-216.8829,78.5444-298
		C450.9965,352.2157,481.3059,68.0002,381.542,6.0002z"/>
</g>
</svg>
